# xmcd
#
# Track frame offsets: 
#        150
#        13277
#        24992
#        44557
#        58556
#        69090
#        79385
#        93613
#        104647
#        118204
#        133408
#        146045
#        163786
#        175959
#        191216
#        201577
#        213573
#        228637
#        240205
#        251912
#
# Disc length: 3495 seconds
#
# Revision: 2
# Processed by: cddbd v1.4PL0 Copyright (c) Steve Scherf et al.
# Submitted via: ExactAudioCopy v0.90b4
#
DISCID=3c0da514
DTITLE=Kenny Rogers - 20 Golden Greats
DYEAR=1999
DGENRE=Country
TTITLE0=Ruby, don't take your love to town
TTITLE1=Me and Bobby McGee
TTITLE2=Lay it down
TTITLE3=loser
TTITLE4=Ticket to nowhere
TTITLE5=New design
TTITLE6=Sunshine
TTITLE7=Always leaving, always gone
TTITLE8=Shine on ruby mountain
TTITLE9=condition
TTITLE10=Reuben James
TTITLE11=Something's burning
TTITLE12=What am i gonna do
TTITLE13=For the good times
TTITLE14=Good time liberator
TTITLE15=Elvira
TTITLE16=All god's lonely children
TTITLE17=If wishes were horses
TTITLE18=Girl, get a hold of yourself
TTITLE19=Once again she's all alone
EXTD=
EXTT0=
EXTT1=
EXTT2=
EXTT3=
EXTT4=
EXTT5=
EXTT6=
EXTT7=
EXTT8=
EXTT9=
EXTT10=
EXTT11=
EXTT12=
EXTT13=
EXTT14=
EXTT15=
EXTT16=
EXTT17=
EXTT18=
EXTT19=
PLAYORDER=
